<svg xmlns="http://www.w3.org/2000/svg" viewBox="0 0 390 760" role="img" aria-label="Sangjit — Red Thread"><title>Red Thread</title><style>.ot-accent-art{color:#d8af69}.ot-soft-art{color:#b84f4a}.td-paper-art{color:#7c242d}text{fill:#fff3da;font-family:Georgia,serif}.detail{font-family:Arial,sans-serif;font-size:14px}</style><rect width="390" height="760" fill="#7c242d"/><path d="M12 0C34 243 0 436 23 760" fill="none" stroke="#b84f4a" stroke-width="12"/><text class="detail" x="40" y="168">Sangjit</text><text x="40" y="257" font-size="70">Una &amp;</text><text x="40" y="335" font-size="70">Dara</text><text class="detail" x="40" y="382">Sabtu, 21 Agustus 2027</text><svg x="40" y="30" width="320" height="90" viewBox="0 0 380 100" fill="none"><g data-studio-native-object="object:cover:cloud-line-art" class="ot-accent-art" stroke="currentColor" stroke-width="1.4" stroke-linecap="round"><path d="M12 77C-3 61 20 41 34 52C32 16 80 4 97 34C119 14 156 27 150 55C178 25 204 36 218 53C248 66 258 13 290 30C285 9 331 2 344 31C367 22 382 43 369 59C356 74 332 63 342 50C348 43 362 48 356 54M13 78C45 77 76 96 102 81C130 65 128 50 114 54C101 59 108 72 118 67M151 65C211 86 245 71 274 63C302 55 317 63 316 76C315 88 297 92 291 83"></path></g></svg><svg x="141" y="411" width="215" height="244" viewBox="0 0 300 340" fill="none"><g data-studio-native-object="object:cover:knot-tail-left-art" class="ot-accent-art"><path d="M148 122C123 184 65 184 40 245C28 275 32 296 10 325C60 304 59 255 91 227C122 200 160 184 165 130" stroke="currentColor" stroke-width="9"></path></g><g data-studio-native-object="object:cover:knot-tail-right-art" class="ot-soft-art"><path d="M155 124C191 185 165 226 185 272C198 302 230 304 237 328C230 286 207 275 204 247C198 210 209 162 169 122" stroke="currentColor" stroke-width="12"></path></g><g data-studio-native-object="object:cover:knot-loop-left-art" class="ot-accent-art"><path d="M152 115C131 46 96 25 57 49C8 83 30 131 73 127C105 124 133 113 151 101" stroke="currentColor" stroke-width="11" stroke-linecap="round"></path></g><g data-studio-native-object="object:cover:knot-loop-right-art" class="ot-accent-art"><path d="M157 108C210 63 246 58 267 88C292 126 254 150 223 136C193 123 172 112 156 96" stroke="currentColor" stroke-width="11" stroke-linecap="round"></path></g><g data-studio-native-object="object:cover:knot-center-art" class="ot-soft-art"><rect x="131" y="90" width="48" height="42" rx="9" transform="rotate(-20 155 111)" fill="currentColor"></rect><path d="M138 93L149 130M147 90L158 128M156 87L166 125" stroke="#d8af69" stroke-width="2"></path></g></svg><text class="detail" x="195" y="716" text-anchor="middle" font-size="12">Gulir untuk membaca</text></svg>
